PathFileType	4	(X/Y/Z)	/Users/niels/Desktop/University/Third Semester/Perception and Action/Exam/Gymnastics Motion Tracking/Code for Gym Tracking/Analyzed Data/Webcam_Backflip/id11_2_trajectory_Sports2D/id11_2_trajectory_Sports2D_px_person00.trc
DataRate	CameraRate	NumFrames	NumMarkers	Units	OrigDataRate	OrigDataStartFrame	OrigNumFrames
29.714285714285715	29.714285714285715	10	22	m	29.714285714285715	39	105
Frame#	Time	Hip			RHip			RKnee			RAnkle			RBigToe			RSmallToe			RHeel			LHip			LKnee			LAnkle			LBigToe			LSmallToe			LHeel			Neck			Head			Nose			RShoulder			RElbow			RWrist			LShoulder			LElbow			LWrist		
		X1	Y1	Z1	X2	Y2	Z2	X3	Y3	Z3	X4	Y4	Z4	X5	Y5	Z5	X6	Y6	Z6	X7	Y7	Z7	X8	Y8	Z8	X9	Y9	Z9	X10	Y10	Z10	X11	Y11	Z11	X12	Y12	Z12	X13	Y13	Z13	X14	Y14	Z14	X15	Y15	Z15	X16	Y16	Z16	X17	Y17	Z17	X18	Y18	Z18	X19	Y19	Z19	X20	Y20	Z20	X21	Y21	Z21	X22	Y22	Z22
39	1.3125	0.8694812104626789	-0.6255580137163694	0.0	0.8616968754461771	-0.6299051060603283	0.0	0.9621749765623191	-0.8094760800817313	0.0	0.8810429638436763	-0.9909481949681985	0.0	0.9687420826185293	-1.0366516813148363	0.0	0.9438055045842041	-1.043536297445707	0.0	0.8559073507991091	-1.016854966207054	0.0	0.8859681976155781	-0.6267353756495505	0.0	0.9726417082258546	-0.8010897522028999	0.0	0.8909300649083668	-0.9717721079211924	0.0	0.9706900709334009	-1.0069619411347002	0.0	0.9548066775505387	-1.0045095559078163	0.0	0.855383411257783	-0.9947945083364745	0.0	0.9925860825265894	-0.3821937972212421	0.0	1.061732648853473	-0.27436666820092714	0.0	1.060336966570087	-0.3509974136790337	0.0	0.9594700342262029	-0.41777492712069697	0.0	0.9858342356218623	-0.5410704061296652	0.0	1.0601175101501858	-0.6238479724676214	0.0	0.9802780575084084	-0.4171288401161076	0.0	1.010455414049371	-0.5276447741231259	0.0	1.062743759769973	-0.6021330268294637	0.0
40	1.346153846153846	0.8769932530461907	-0.6242362394917879	0.0	0.8689702335980183	-0.62843736426491	0.0	0.9680781391962493	-0.8104238804184386	0.0	0.8821526256799199	-0.9896285846485536	0.0	0.9684031705728944	-1.0368436492045743	0.0	0.9442730978918303	-1.0433109050261085	0.0	0.8566622820556062	-1.015035859656486	0.0	0.8930289544327782	-0.6263084353325477	0.0	0.9809370054562446	-0.801600094201283	0.0	0.891661626754847	-0.9700420192067873	0.0	0.9707589560686843	-1.006020986948874	0.0	0.9564990323485314	-1.0039047419392635	0.0	0.8559455078185785	-0.9918325578048575	0.0	0.9807243522707979	-0.37265125105956715	0.0	1.0432137412564069	-0.2610073310397257	0.0	1.0455439748794733	-0.33794348414095354	0.0	0.9517152486779477	-0.40873320320425205	0.0	1.0143174811041167	-0.5099777608080837	0.0	1.1115539822077962	-0.5630893314824016	0.0	0.970566859152772	-0.4068817206142248	0.0	1.0340807600413504	-0.4973257730540585	0.0	1.1098202609489645	-0.5470346366721707	0.0
41	1.3798076923076923	0.8859304647788825	-0.619818985658639	0.0	0.8778050220012587	-0.6237430145662198	0.0	0.9723186289664895	-0.8090755652657866	0.0	0.8833722645523073	-0.9875982997313366	0.0	0.9677191998094086	-1.0366512571133657	0.0	0.944492535140581	-1.0426987659263949	0.0	0.8574789959675402	-1.0122500665883216	0.0	0.9008125582687623	-0.6225296585837171	0.0	0.9860070121547491	-0.800221262088623	0.0	0.8924598459417968	-0.9681204353427455	0.0	0.9711419498838652	-1.0055771817541461	0.0	0.9586005659436971	-1.003828623475832	0.0	0.8563057829980864	-0.9890101790648853	0.0	0.9700692311502244	-0.36127915274395517	0.0	1.0268727122562298	-0.2468856809990883	0.0	1.0321590111916503	-0.3235946667948185	0.0	0.9450916426922735	-0.39618391620332705	0.0	1.0374064787824624	-0.46682677419670143	0.0	1.1460112496401234	-0.48559800459549607	0.0	0.9599480121715865	-0.39364166040856713	0.0	1.0503618178530538	-0.45685723224827673	0.0	1.1402571762439322	-0.47557412652955955	0.0
42	1.4134615384615383	0.8960764095929661	-0.6115598214959107	0.0	0.8877760762899278	-0.6151602868264259	0.0	0.9740464559667248	-0.8047404263343308	0.0	0.8850969288962377	-0.9845697881344878	0.0	0.9668587989147776	-1.036081674211495	0.0	0.9444482523179386	-1.0416536154878484	0.0	0.8588475453311298	-1.0084410467026312	0.0	0.9093038818267625	-0.6146673443125817	0.0	0.9865797865768753	-0.7962994136757191	0.0	0.8937768969677818	-0.9655412082737588	0.0	0.971591670009568	-1.005336643386121	0.0	0.9605259837202638	-1.0037699275312975	0.0	0.857073766265499	-0.9859832728024924	0.0	0.961619735550554	-0.34750292813829736	0.0	1.0136908659940445	-0.23213586317145343	0.0	1.0209478892631518	-0.30760947603833927	0.0	0.9397702744334194	-0.37958761423797177	0.0	1.0535768553258065	-0.4155659193070896	0.0	1.1617125115748648	-0.40018529161615424	0.0	0.9495939843997665	-0.37734807346940336	0.0	1.0591506791356078	-0.4103091373632282	0.0	1.1537409827125071	-0.39607964845851534	0.0
43	1.4471153846153846	0.9069449846092543	-0.5991102372659511	0.0	0.898226822861873	-0.6025620135778128	0.0	0.9725947218990009	-0.7971472460602895	0.0	0.887894417399109	-0.9802683124982762	0.0	0.966041382759683	-1.0351358808139852	0.0	0.9441565271548712	-1.0400697462881614	0.0	0.8615026572544714	-1.0035942383641547	0.0	0.9185854421624499	-0.6027103701636244	0.0	0.9825733874187215	-0.7894512196299376	0.0	0.895854323721478	-0.9616901250674332	0.0	0.9718446662481888	-1.0048403708404279	0.0	0.9616487882400162	-1.0030479684017681	0.0	0.8588624527303175	-0.9822171474609717	0.0	0.9561008737630771	-0.3307999186273774	0.0	1.0037353576754404	-0.2166950311455368	0.0	1.0122466327270476	-0.28942917455600187	0.0	0.9358597737246457	-0.35891100958705924	0.0	1.0622594592222732	-0.35998433466387875	0.0	1.1589330255608932	-0.31457258875421035	0.0	0.941303628731945	-0.35828524460035627	0.0	1.061161513941184	-0.3616637900723151	0.0	1.151335329548612	-0.31671096398216475	0.0
44	1.4807692307692306	0.9177366899613987	-0.5827521395256773	0.0	0.9083747795007622	-0.5865305310683833	0.0	0.9678845505126521	-0.786565408790882	0.0	0.8922396292547284	-0.9745479424849722	0.0	0.9655918423921235	-1.0334494315100102	0.0	0.9438272493890676	-1.037564414563086	0.0	0.8661663460304752	-0.997850574614321	0.0	0.9284307774975372	-0.5874589339166745	0.0	0.9750305256438002	-0.7797396397722317	0.0	0.8989244211049884	-0.956231062370737	0.0	0.9721656661110479	-1.0036776037529065	0.0	0.9622794767070016	-1.00118398741154	0.0	0.8623315939006502	-0.9774010106243113	0.0	0.9536723978075444	-0.311038949332984	0.0	0.9963081110399887	-0.20058989451944736	0.0	1.006065124520578	-0.26867528038756483	0.0	0.9334822696872427	-0.33500294447169204	0.0	1.063628220371926	-0.30352219219625926	0.0	1.140435709070356	-0.23471602506209918	0.0	0.9366546753989948	-0.3372008891970848	0.0	1.057890597849334	-0.31405733238995587	0.0	1.1358615773115963	-0.24453751149421743	0.0
45	1.5144230769230769	0.9275922114901769	-0.5634097329138219	0.0	0.917581311020993	-0.5683232119682456	0.0	0.960775790138763	-0.7737782085636771	0.0	0.8982548981328504	-0.9674551213981943	0.0	0.9660767630578724	-1.0304430894226422	0.0	0.9440593931253344	-1.0336297196066446	0.0	0.8731155368276394	-0.9914818554489656	0.0	0.9381451743028459	-0.5703097828698749	0.0	0.9659360950230599	-0.7677765082143346	0.0	0.9033642724718697	-0.949288106360953	0.0	0.9733975060178174	-1.0016391999200263	0.0	0.9637340157411102	-0.9980755508370154	0.0	0.8680807513608364	-0.9715631742777374	0.0	0.9538403251605141	-0.2888893448716936	0.0	0.9906874271235061	-0.18429627704591486	0.0	1.0022833971917628	-0.245774482568453	0.0	0.9327258130014372	-0.30954069820195473	0.0	1.0581479052210616	-0.2495951687849031	0.0	1.1113119800121216	-0.16512218656648103	0.0	0.9364900878070448	-0.3153571584602615	0.0	1.0511907526654496	-0.26951895164226086	0.0	1.1121276461149712	-0.18505158496286317	0.0
46	1.548076923076923	0.9359939982540643	-0.5426219555099835	0.0	0.9254855966752269	-0.5496525147376035	0.0	0.9529217831119733	-0.7600480415975568	0.0	0.9055362043322223	-0.9593012331317168	0.0	0.9681337117640343	-1.0260085474587328	0.0	0.9455389874153893	-1.0281941199124325	0.0	0.8817534901692363	-0.984743140459978	0.0	0.9469788496123134	-0.5529834045745377	0.0	0.9576609033829683	-0.7548117769989421	0.0	0.9094217103902543	-0.941455204766126	0.0	0.9762908041553997	-0.9988674614703794	0.0	0.9672115762819781	-0.9940345670563353	0.0	0.8761841591718528	-0.965013071309507	0.0	0.9559006467043947	-0.26607060277267364	0.0	0.986821208552722	-0.1685847571696816	0.0	1.000673953062228	-0.22237163333501977	0.0	0.933429816341353	-0.2846970821536261	0.0	1.0463706170451292	-0.20173902643132674	0.0	1.0774028871360846	-0.10884294438643233	0.0	0.9411152877211584	-0.2946269349712326	0.0	1.0423905097023072	-0.22918202140087832	0.0	1.0853513942569226	-0.14182536411805363	0.0
47	1.5817307692307692	0.9429357174611729	-0.5226173352692415	0.0	0.9319450833773273	-0.5324589343631062	0.0	0.9461066607289077	-0.7470978343180014	0.0	0.9132228747152207	-0.9509131786273307	0.0	0.9720494648504052	-1.0208872319817217	0.0	0.9485173929479871	-1.02197377006077	0.0	0.8907265391344078	-0.9779912088857622	0.0	0.9545497859692013	-0.5373354509164752	0.0	0.9519452216571737	-0.7427444057101469	0.0	0.9167281394964848	-0.9339167738315532	0.0	0.9808326483080428	-0.9959857718114465	0.0	0.9727773816982729	-0.9898610901559007	0.0	0.8858324224420665	-0.9584866769032504	0.0	0.9593564145807781	-0.2451870237954934	0.0	0.9852078463420262	-0.15379830456312701	0.0	1.0007933710111336	-0.20105624598196623	0.0	0.9350374154865483	-0.262732427738842	0.0	1.029567807020144	-0.16291553284270968	0.0	1.0437210674178017	-0.0668267838490448	0.0	0.950336665013935	-0.27732868355296103	0.0	1.0321586810415586	-0.19388268470915024	0.0	1.0593387271753332	-0.11654706518765887	0.0
48	1.6153846153846154	0.9487472160005443	-0.5060767975523467	0.0	0.9369782105517828	-0.518687889075291	0.0	0.9416418357510756	-0.7368794432884089	0.0	0.9203993460914005	-0.9437991385209253	0.0	0.9775994059222799	-1.0163596510994057	0.0	0.9527499964338665	-1.0162694323317087	0.0	0.8986669373643974	-0.9720501432554337	0.0	0.9609197533511231	-0.5251034741271254	0.0	0.9493425144925199	-0.7337123900659106	0.0	0.9242591511629058	-0.928279289831674	0.0	0.9862986726769417	-0.99391346418686	0.0	0.9794926491840661	-0.9866562110622759	0.0	0.895545800472337	-0.9531613331684118	0.0	0.9637589578037943	-0.22903044405861325	0.0	0.9860775608913659	-0.1398928803518341	0.0	1.001980810991428	-0.1844869652923358	0.0	0.9367109837110128	-0.24563115577404093	0.0	1.0102090515128586	-0.13465799470020964	0.0	1.0136692592166716	-0.03785094010750692	0.0	0.9631283350034482	-0.26548435788506797	0.0	1.0212710109395347	-0.1647316629375687	0.0	1.0361370905261502	-0.1090661918535256	0.0
